<mxfile host="Electron" agent="Mozilla/5.0 (Windows NT 10.0; Win64; x64) AppleWebKit/537.36 (KHTML, like Gecko) draw.io/28.0.6 Chrome/138.0.7204.100 Electron/37.2.3 Safari/537.36" version="28.0.6" pages="2">
  <diagram name="Page-1" id="vU5iGgvN92AZGwpGRksw">
    <mxGraphModel dx="1042" dy="626" grid="1" gridSize="10" guides="1" tooltips="1" connect="1" arrows="1" fold="1" page="1" pageScale="1" pageWidth="850" pageHeight="1100" math="0" shadow="0">
      <root>
        <mxCell id="0" />
        <mxCell id="1" parent="0" />
        <mxCell id="aM1qL8xauE8ZXSII7AE8-1" value="" style="rounded=0;whiteSpace=wrap;html=1;strokeColor=#808080;dashed=1;fillStyle=hatch;" parent="1" vertex="1">
          <mxGeometry x="40" y="160" width="120" height="360" as="geometry" />
        </mxCell>
        <mxCell id="aM1qL8xauE8ZXSII7AE8-2" value="sources" style="rounded=1;whiteSpace=wrap;html=1;strokeColor=none;" parent="1" vertex="1">
          <mxGeometry x="65" y="150" width="70" height="20" as="geometry" />
        </mxCell>
        <mxCell id="aM1qL8xauE8ZXSII7AE8-15" style="edgeStyle=orthogonalEdgeStyle;rounded=0;orthogonalLoop=1;jettySize=auto;html=1;" parent="1" source="aM1qL8xauE8ZXSII7AE8-3" target="aM1qL8xauE8ZXSII7AE8-8" edge="1">
          <mxGeometry relative="1" as="geometry" />
        </mxCell>
        <mxCell id="aM1qL8xauE8ZXSII7AE8-16" style="edgeStyle=orthogonalEdgeStyle;rounded=0;orthogonalLoop=1;jettySize=auto;html=1;" parent="1" source="aM1qL8xauE8ZXSII7AE8-3" target="aM1qL8xauE8ZXSII7AE8-9" edge="1">
          <mxGeometry relative="1" as="geometry" />
        </mxCell>
        <mxCell id="aM1qL8xauE8ZXSII7AE8-18" style="edgeStyle=orthogonalEdgeStyle;rounded=0;orthogonalLoop=1;jettySize=auto;html=1;entryX=0;entryY=0.25;entryDx=0;entryDy=0;" parent="1" source="aM1qL8xauE8ZXSII7AE8-3" target="aM1qL8xauE8ZXSII7AE8-10" edge="1">
          <mxGeometry relative="1" as="geometry" />
        </mxCell>
        <mxCell id="aM1qL8xauE8ZXSII7AE8-3" value="CRM" style="image;aspect=fixed;html=1;points=[];align=center;fontSize=12;image=img/lib/azure2/general/Folder_Blank.svg;" parent="1" vertex="1">
          <mxGeometry x="65" y="220" width="49.29" height="40" as="geometry" />
        </mxCell>
        <mxCell id="aM1qL8xauE8ZXSII7AE8-19" style="edgeStyle=orthogonalEdgeStyle;rounded=0;orthogonalLoop=1;jettySize=auto;html=1;entryX=0;entryY=0.25;entryDx=0;entryDy=0;" parent="1" source="aM1qL8xauE8ZXSII7AE8-4" target="aM1qL8xauE8ZXSII7AE8-11" edge="1">
          <mxGeometry relative="1" as="geometry" />
        </mxCell>
        <mxCell id="aM1qL8xauE8ZXSII7AE8-20" style="edgeStyle=orthogonalEdgeStyle;rounded=0;orthogonalLoop=1;jettySize=auto;html=1;entryX=0;entryY=0.5;entryDx=0;entryDy=0;" parent="1" source="aM1qL8xauE8ZXSII7AE8-4" target="aM1qL8xauE8ZXSII7AE8-12" edge="1">
          <mxGeometry relative="1" as="geometry" />
        </mxCell>
        <mxCell id="aM1qL8xauE8ZXSII7AE8-21" style="edgeStyle=orthogonalEdgeStyle;rounded=0;orthogonalLoop=1;jettySize=auto;html=1;entryX=0;entryY=0.75;entryDx=0;entryDy=0;" parent="1" source="aM1qL8xauE8ZXSII7AE8-4" target="aM1qL8xauE8ZXSII7AE8-13" edge="1">
          <mxGeometry relative="1" as="geometry" />
        </mxCell>
        <mxCell id="aM1qL8xauE8ZXSII7AE8-4" value="ERP" style="image;aspect=fixed;html=1;points=[];align=center;fontSize=12;image=img/lib/azure2/general/Folder_Blank.svg;" parent="1" vertex="1">
          <mxGeometry x="65" y="350" width="49.29" height="40" as="geometry" />
        </mxCell>
        <mxCell id="aM1qL8xauE8ZXSII7AE8-6" value="" style="rounded=1;whiteSpace=wrap;html=1;fillStyle=hatch;strokeColor=#FFB570;" parent="1" vertex="1">
          <mxGeometry x="200" y="200" width="160" height="320" as="geometry" />
        </mxCell>
        <mxCell id="aM1qL8xauE8ZXSII7AE8-7" value="&lt;b&gt;Bronze Layer&lt;/b&gt;" style="rounded=1;whiteSpace=wrap;html=1;fillColor=#FFCE9F;strokeColor=#FFB570;" parent="1" vertex="1">
          <mxGeometry x="200" y="160" width="160" height="30" as="geometry" />
        </mxCell>
        <mxCell id="VNqkiadDTjAyHpFf4C8h-14" style="edgeStyle=orthogonalEdgeStyle;rounded=0;orthogonalLoop=1;jettySize=auto;html=1;entryX=0;entryY=0.5;entryDx=0;entryDy=0;" edge="1" parent="1" source="aM1qL8xauE8ZXSII7AE8-8" target="VNqkiadDTjAyHpFf4C8h-5">
          <mxGeometry relative="1" as="geometry" />
        </mxCell>
        <mxCell id="aM1qL8xauE8ZXSII7AE8-8" value="&lt;b&gt;crm_sales_details&lt;/b&gt;" style="rounded=1;whiteSpace=wrap;html=1;fillColor=#FFF4C3;strokeColor=#FFB570;" parent="1" vertex="1">
          <mxGeometry x="220" y="220" width="110" height="30" as="geometry" />
        </mxCell>
        <mxCell id="VNqkiadDTjAyHpFf4C8h-15" style="edgeStyle=orthogonalEdgeStyle;rounded=0;orthogonalLoop=1;jettySize=auto;html=1;" edge="1" parent="1" source="aM1qL8xauE8ZXSII7AE8-9" target="VNqkiadDTjAyHpFf4C8h-6">
          <mxGeometry relative="1" as="geometry" />
        </mxCell>
        <mxCell id="aM1qL8xauE8ZXSII7AE8-9" value="&lt;b&gt;crm_cust_info&lt;/b&gt;" style="rounded=1;whiteSpace=wrap;html=1;fillColor=#FFF4C3;strokeColor=#FFB570;" parent="1" vertex="1">
          <mxGeometry x="220" y="260" width="120" height="30" as="geometry" />
        </mxCell>
        <mxCell id="VNqkiadDTjAyHpFf4C8h-16" style="edgeStyle=orthogonalEdgeStyle;rounded=0;orthogonalLoop=1;jettySize=auto;html=1;entryX=0;entryY=0.5;entryDx=0;entryDy=0;" edge="1" parent="1" source="aM1qL8xauE8ZXSII7AE8-10" target="VNqkiadDTjAyHpFf4C8h-7">
          <mxGeometry relative="1" as="geometry" />
        </mxCell>
        <mxCell id="aM1qL8xauE8ZXSII7AE8-10" value="&lt;b&gt;crm_prd_info&lt;/b&gt;" style="rounded=1;whiteSpace=wrap;html=1;fillColor=#FFF4C3;strokeColor=#FFB570;" parent="1" vertex="1">
          <mxGeometry x="220" y="300" width="120" height="30" as="geometry" />
        </mxCell>
        <mxCell id="VNqkiadDTjAyHpFf4C8h-17" style="edgeStyle=orthogonalEdgeStyle;rounded=0;orthogonalLoop=1;jettySize=auto;html=1;entryX=0;entryY=0.5;entryDx=0;entryDy=0;" edge="1" parent="1" source="aM1qL8xauE8ZXSII7AE8-11" target="VNqkiadDTjAyHpFf4C8h-8">
          <mxGeometry relative="1" as="geometry" />
        </mxCell>
        <mxCell id="aM1qL8xauE8ZXSII7AE8-11" value="&lt;b&gt;erp_cust_az12&lt;/b&gt;" style="rounded=1;whiteSpace=wrap;html=1;fillColor=#FFF4C3;strokeColor=#FFB570;" parent="1" vertex="1">
          <mxGeometry x="220" y="360" width="120" height="30" as="geometry" />
        </mxCell>
        <mxCell id="VNqkiadDTjAyHpFf4C8h-18" style="edgeStyle=orthogonalEdgeStyle;rounded=0;orthogonalLoop=1;jettySize=auto;html=1;entryX=0;entryY=0.5;entryDx=0;entryDy=0;" edge="1" parent="1" source="aM1qL8xauE8ZXSII7AE8-12" target="VNqkiadDTjAyHpFf4C8h-9">
          <mxGeometry relative="1" as="geometry" />
        </mxCell>
        <mxCell id="aM1qL8xauE8ZXSII7AE8-12" value="&lt;b&gt;erp_loc_a101&lt;/b&gt;" style="rounded=1;whiteSpace=wrap;html=1;fillColor=#FFF4C3;strokeColor=#FFB570;" parent="1" vertex="1">
          <mxGeometry x="220" y="400" width="120" height="30" as="geometry" />
        </mxCell>
        <mxCell id="VNqkiadDTjAyHpFf4C8h-19" style="edgeStyle=orthogonalEdgeStyle;rounded=0;orthogonalLoop=1;jettySize=auto;html=1;" edge="1" parent="1" source="aM1qL8xauE8ZXSII7AE8-13" target="VNqkiadDTjAyHpFf4C8h-10">
          <mxGeometry relative="1" as="geometry" />
        </mxCell>
        <mxCell id="aM1qL8xauE8ZXSII7AE8-13" value="&lt;b&gt;erp_px_cat_gtv2&lt;/b&gt;" style="rounded=1;whiteSpace=wrap;html=1;fillColor=#FFF4C3;strokeColor=#FFB570;" parent="1" vertex="1">
          <mxGeometry x="220" y="440" width="120" height="30" as="geometry" />
        </mxCell>
        <mxCell id="VNqkiadDTjAyHpFf4C8h-1" value="" style="rounded=1;whiteSpace=wrap;html=1;fillStyle=hatch;strokeColor=#B3B3B3;" vertex="1" parent="1">
          <mxGeometry x="400" y="200" width="160" height="320" as="geometry" />
        </mxCell>
        <mxCell id="VNqkiadDTjAyHpFf4C8h-2" value="&lt;b&gt;Silver Layer&lt;/b&gt;" style="rounded=1;whiteSpace=wrap;html=1;fillColor=#f5f5f5;strokeColor=#666666;fontColor=#333333;" vertex="1" parent="1">
          <mxGeometry x="400" y="160" width="160" height="30" as="geometry" />
        </mxCell>
        <mxCell id="VNqkiadDTjAyHpFf4C8h-3" value="" style="rounded=1;whiteSpace=wrap;html=1;fillStyle=hatch;strokeColor=#FFFF00;" vertex="1" parent="1">
          <mxGeometry x="680" y="200" width="160" height="320" as="geometry" />
        </mxCell>
        <mxCell id="VNqkiadDTjAyHpFf4C8h-4" value="&lt;b&gt;Gold Layer&lt;/b&gt;" style="rounded=1;whiteSpace=wrap;html=1;fillColor=#fff2cc;strokeColor=#d6b656;" vertex="1" parent="1">
          <mxGeometry x="680" y="160" width="160" height="30" as="geometry" />
        </mxCell>
        <mxCell id="VNqkiadDTjAyHpFf4C8h-20" style="edgeStyle=orthogonalEdgeStyle;rounded=0;orthogonalLoop=1;jettySize=auto;html=1;entryX=0;entryY=0.5;entryDx=0;entryDy=0;" edge="1" parent="1" source="VNqkiadDTjAyHpFf4C8h-5" target="VNqkiadDTjAyHpFf4C8h-11">
          <mxGeometry relative="1" as="geometry" />
        </mxCell>
        <mxCell id="VNqkiadDTjAyHpFf4C8h-5" value="&lt;b&gt;crm_sales_details&lt;/b&gt;" style="rounded=1;whiteSpace=wrap;html=1;fillColor=#f5f5f5;strokeColor=#666666;fontColor=#333333;" vertex="1" parent="1">
          <mxGeometry x="420" y="220" width="120" height="30" as="geometry" />
        </mxCell>
        <mxCell id="VNqkiadDTjAyHpFf4C8h-21" style="edgeStyle=orthogonalEdgeStyle;rounded=1;orthogonalLoop=1;jettySize=auto;html=1;entryX=0;entryY=0.25;entryDx=0;entryDy=0;curved=0;" edge="1" parent="1" source="VNqkiadDTjAyHpFf4C8h-6" target="VNqkiadDTjAyHpFf4C8h-12">
          <mxGeometry relative="1" as="geometry" />
        </mxCell>
        <mxCell id="VNqkiadDTjAyHpFf4C8h-6" value="&lt;b&gt;crm_cust_info&lt;/b&gt;" style="rounded=1;whiteSpace=wrap;html=1;fillColor=#f5f5f5;strokeColor=#666666;fontColor=#333333;" vertex="1" parent="1">
          <mxGeometry x="420" y="260" width="120" height="30" as="geometry" />
        </mxCell>
        <mxCell id="VNqkiadDTjAyHpFf4C8h-22" style="edgeStyle=orthogonalEdgeStyle;rounded=0;orthogonalLoop=1;jettySize=auto;html=1;entryX=0;entryY=0.5;entryDx=0;entryDy=0;curved=1;" edge="1" parent="1" source="VNqkiadDTjAyHpFf4C8h-7" target="VNqkiadDTjAyHpFf4C8h-13">
          <mxGeometry relative="1" as="geometry" />
        </mxCell>
        <mxCell id="VNqkiadDTjAyHpFf4C8h-7" value="&lt;b&gt;crm_prd_info&lt;/b&gt;" style="rounded=1;whiteSpace=wrap;html=1;fillColor=#f5f5f5;strokeColor=#666666;fontColor=#333333;" vertex="1" parent="1">
          <mxGeometry x="420" y="300" width="120" height="30" as="geometry" />
        </mxCell>
        <mxCell id="VNqkiadDTjAyHpFf4C8h-23" style="edgeStyle=orthogonalEdgeStyle;rounded=0;orthogonalLoop=1;jettySize=auto;html=1;entryX=0;entryY=0.5;entryDx=0;entryDy=0;curved=1;" edge="1" parent="1" source="VNqkiadDTjAyHpFf4C8h-8" target="VNqkiadDTjAyHpFf4C8h-12">
          <mxGeometry relative="1" as="geometry" />
        </mxCell>
        <mxCell id="VNqkiadDTjAyHpFf4C8h-8" value="&lt;b&gt;erp_cust_az12&lt;/b&gt;" style="rounded=1;whiteSpace=wrap;html=1;fillColor=#f5f5f5;strokeColor=#666666;fontColor=#333333;" vertex="1" parent="1">
          <mxGeometry x="420" y="360" width="120" height="30" as="geometry" />
        </mxCell>
        <mxCell id="VNqkiadDTjAyHpFf4C8h-25" style="edgeStyle=orthogonalEdgeStyle;rounded=0;orthogonalLoop=1;jettySize=auto;html=1;entryX=0;entryY=0.75;entryDx=0;entryDy=0;curved=1;" edge="1" parent="1" source="VNqkiadDTjAyHpFf4C8h-9" target="VNqkiadDTjAyHpFf4C8h-12">
          <mxGeometry relative="1" as="geometry" />
        </mxCell>
        <mxCell id="VNqkiadDTjAyHpFf4C8h-9" value="&lt;b&gt;erp_loc_a101&lt;/b&gt;" style="rounded=1;whiteSpace=wrap;html=1;fillColor=#f5f5f5;strokeColor=#666666;fontColor=#333333;" vertex="1" parent="1">
          <mxGeometry x="420" y="400" width="120" height="30" as="geometry" />
        </mxCell>
        <mxCell id="VNqkiadDTjAyHpFf4C8h-24" style="edgeStyle=orthogonalEdgeStyle;rounded=0;orthogonalLoop=1;jettySize=auto;html=1;curved=1;" edge="1" parent="1" source="VNqkiadDTjAyHpFf4C8h-10" target="VNqkiadDTjAyHpFf4C8h-13">
          <mxGeometry relative="1" as="geometry" />
        </mxCell>
        <mxCell id="VNqkiadDTjAyHpFf4C8h-10" value="&lt;b&gt;erp_px_cat_gtv2&lt;/b&gt;" style="rounded=1;whiteSpace=wrap;html=1;fillColor=#f5f5f5;strokeColor=#666666;fontColor=#333333;" vertex="1" parent="1">
          <mxGeometry x="420" y="440" width="120" height="30" as="geometry" />
        </mxCell>
        <mxCell id="VNqkiadDTjAyHpFf4C8h-11" value="&lt;b&gt;fact_sales&lt;/b&gt;" style="rounded=1;whiteSpace=wrap;html=1;fillColor=#fff2cc;strokeColor=#333333;" vertex="1" parent="1">
          <mxGeometry x="700" y="220" width="120" height="30" as="geometry" />
        </mxCell>
        <mxCell id="VNqkiadDTjAyHpFf4C8h-12" value="&lt;b&gt;dim_customers&lt;/b&gt;" style="rounded=1;whiteSpace=wrap;html=1;fillColor=#fff2cc;strokeColor=#d6b656;" vertex="1" parent="1">
          <mxGeometry x="700" y="290" width="120" height="30" as="geometry" />
        </mxCell>
        <mxCell id="VNqkiadDTjAyHpFf4C8h-13" value="&lt;b&gt;dim_products&lt;/b&gt;" style="rounded=1;whiteSpace=wrap;html=1;fillColor=#fff2cc;strokeColor=#d6b656;" vertex="1" parent="1">
          <mxGeometry x="690" y="390" width="120" height="30" as="geometry" />
        </mxCell>
      </root>
    </mxGraphModel>
  </diagram>
  <diagram id="WkwFNRcnqqTPZ3qF9TB5" name="Page-2">
    <mxGraphModel dx="1042" dy="1726" grid="1" gridSize="10" guides="1" tooltips="1" connect="1" arrows="1" fold="1" page="1" pageScale="1" pageWidth="850" pageHeight="1100" math="0" shadow="0">
      <root>
        <mxCell id="0" />
        <mxCell id="1" parent="0" />
        <mxCell id="lpsm7OCkFcesUjUf1rjf-1" value="crm_cust_info" style="swimlane;fontStyle=0;childLayout=stackLayout;horizontal=1;startSize=30;horizontalStack=0;resizeParent=1;resizeParentMax=0;resizeLast=0;collapsible=1;marginBottom=0;whiteSpace=wrap;html=1;fillColor=#dae8fc;strokeColor=#6c8ebf;" parent="1" vertex="1">
          <mxGeometry x="290" y="128" width="162" height="60" as="geometry" />
        </mxCell>
        <mxCell id="lpsm7OCkFcesUjUf1rjf-2" value="cst_id&lt;div&gt;cst_key&lt;/div&gt;" style="text;strokeColor=none;fillColor=none;align=left;verticalAlign=middle;spacingLeft=4;spacingRight=4;overflow=hidden;points=[[0,0.5],[1,0.5]];portConstraint=eastwest;rotatable=0;whiteSpace=wrap;html=1;" parent="lpsm7OCkFcesUjUf1rjf-1" vertex="1">
          <mxGeometry y="30" width="162" height="30" as="geometry" />
        </mxCell>
        <mxCell id="lpsm7OCkFcesUjUf1rjf-6" value="crm_prd_info" style="swimlane;fontStyle=0;childLayout=stackLayout;horizontal=1;startSize=30;horizontalStack=0;resizeParent=1;resizeParentMax=0;resizeLast=0;collapsible=1;marginBottom=0;whiteSpace=wrap;html=1;fillColor=#dae8fc;strokeColor=#6c8ebf;" parent="1" vertex="1">
          <mxGeometry x="230" y="360" width="210" height="60" as="geometry" />
        </mxCell>
        <mxCell id="lpsm7OCkFcesUjUf1rjf-7" value="prd_key" style="text;strokeColor=none;fillColor=none;align=left;verticalAlign=middle;spacingLeft=4;spacingRight=4;overflow=hidden;points=[[0,0.5],[1,0.5]];portConstraint=eastwest;rotatable=0;whiteSpace=wrap;html=1;" parent="lpsm7OCkFcesUjUf1rjf-6" vertex="1">
          <mxGeometry y="30" width="210" height="30" as="geometry" />
        </mxCell>
        <mxCell id="lpsm7OCkFcesUjUf1rjf-10" value="customer Information" style="text;html=1;align=center;verticalAlign=middle;resizable=0;points=[];autosize=1;strokeColor=none;fillColor=none;" parent="1" vertex="1">
          <mxGeometry x="301" y="100" width="140" height="30" as="geometry" />
        </mxCell>
        <mxCell id="lpsm7OCkFcesUjUf1rjf-11" value="Current &amp;amp; History product information" style="text;html=1;align=center;verticalAlign=middle;resizable=0;points=[];autosize=1;strokeColor=none;fillColor=none;" parent="1" vertex="1">
          <mxGeometry x="232" y="330" width="220" height="30" as="geometry" />
        </mxCell>
        <mxCell id="lpsm7OCkFcesUjUf1rjf-18" value="" style="edgeStyle=orthogonalEdgeStyle;rounded=0;orthogonalLoop=1;jettySize=auto;html=1;entryX=0.047;entryY=0.12;entryDx=0;entryDy=0;entryPerimeter=0;" parent="1" source="lpsm7OCkFcesUjUf1rjf-12" target="lpsm7OCkFcesUjUf1rjf-2" edge="1">
          <mxGeometry relative="1" as="geometry">
            <mxPoint x="350" y="245" as="targetPoint" />
          </mxGeometry>
        </mxCell>
        <mxCell id="lpsm7OCkFcesUjUf1rjf-12" value="crm_sales_details" style="swimlane;fontStyle=0;childLayout=stackLayout;horizontal=1;startSize=30;horizontalStack=0;resizeParent=1;resizeParentMax=0;resizeLast=0;collapsible=1;marginBottom=0;whiteSpace=wrap;html=1;fillColor=#dae8fc;strokeColor=#6c8ebf;" parent="1" vertex="1">
          <mxGeometry x="50" y="210" width="162" height="70" as="geometry" />
        </mxCell>
        <mxCell id="lpsm7OCkFcesUjUf1rjf-13" value="prd_key&lt;br&gt;csdt_id" style="text;strokeColor=none;fillColor=none;align=left;verticalAlign=middle;spacingLeft=4;spacingRight=4;overflow=hidden;points=[[0,0.5],[1,0.5]];portConstraint=eastwest;rotatable=0;whiteSpace=wrap;html=1;" parent="lpsm7OCkFcesUjUf1rjf-12" vertex="1">
          <mxGeometry y="30" width="162" height="40" as="geometry" />
        </mxCell>
        <mxCell id="lpsm7OCkFcesUjUf1rjf-15" value="Current &amp;amp; History Product Informatiom" style="text;html=1;align=center;verticalAlign=middle;resizable=0;points=[];autosize=1;strokeColor=none;fillColor=none;" parent="1" vertex="1">
          <mxGeometry x="25" y="188" width="230" height="30" as="geometry" />
        </mxCell>
        <mxCell id="lpsm7OCkFcesUjUf1rjf-22" style="edgeStyle=orthogonalEdgeStyle;rounded=0;orthogonalLoop=1;jettySize=auto;html=1;" parent="1" source="lpsm7OCkFcesUjUf1rjf-13" target="lpsm7OCkFcesUjUf1rjf-7" edge="1">
          <mxGeometry relative="1" as="geometry" />
        </mxCell>
        <mxCell id="lpsm7OCkFcesUjUf1rjf-23" value="erp_cust_az12" style="swimlane;fontStyle=0;childLayout=stackLayout;horizontal=1;startSize=30;horizontalStack=0;resizeParent=1;resizeParentMax=0;resizeLast=0;collapsible=1;marginBottom=0;whiteSpace=wrap;html=1;fillColor=#fff2cc;strokeColor=#FFD966;" parent="1" vertex="1">
          <mxGeometry x="660" y="120" width="162" height="60" as="geometry" />
        </mxCell>
        <mxCell id="lpsm7OCkFcesUjUf1rjf-24" value="cid" style="text;strokeColor=none;fillColor=none;align=left;verticalAlign=middle;spacingLeft=4;spacingRight=4;overflow=hidden;points=[[0,0.5],[1,0.5]];portConstraint=eastwest;rotatable=0;whiteSpace=wrap;html=1;" parent="lpsm7OCkFcesUjUf1rjf-23" vertex="1">
          <mxGeometry y="30" width="162" height="30" as="geometry" />
        </mxCell>
        <mxCell id="lpsm7OCkFcesUjUf1rjf-25" value="extra customer information" style="text;html=1;align=center;verticalAlign=middle;whiteSpace=wrap;rounded=0;" parent="1" vertex="1">
          <mxGeometry x="646" y="100" width="190" height="20" as="geometry" />
        </mxCell>
        <mxCell id="lpsm7OCkFcesUjUf1rjf-26" style="edgeStyle=orthogonalEdgeStyle;rounded=0;orthogonalLoop=1;jettySize=auto;html=1;entryX=1;entryY=0.5;entryDx=0;entryDy=0;" parent="1" source="lpsm7OCkFcesUjUf1rjf-24" target="lpsm7OCkFcesUjUf1rjf-2" edge="1">
          <mxGeometry relative="1" as="geometry">
            <mxPoint x="460" y="190" as="targetPoint" />
          </mxGeometry>
        </mxCell>
        <mxCell id="lpsm7OCkFcesUjUf1rjf-27" value="erp_loc_a101" style="swimlane;fontStyle=0;childLayout=stackLayout;horizontal=1;startSize=30;horizontalStack=0;resizeParent=1;resizeParentMax=0;resizeLast=0;collapsible=1;marginBottom=0;whiteSpace=wrap;html=1;fillColor=#fff2cc;strokeColor=#FFD966;" parent="1" vertex="1">
          <mxGeometry x="660" y="230" width="162" height="60" as="geometry" />
        </mxCell>
        <mxCell id="lpsm7OCkFcesUjUf1rjf-28" value="cid" style="text;strokeColor=none;fillColor=none;align=left;verticalAlign=middle;spacingLeft=4;spacingRight=4;overflow=hidden;points=[[0,0.5],[1,0.5]];portConstraint=eastwest;rotatable=0;whiteSpace=wrap;html=1;" parent="lpsm7OCkFcesUjUf1rjf-27" vertex="1">
          <mxGeometry y="30" width="162" height="30" as="geometry" />
        </mxCell>
        <mxCell id="lpsm7OCkFcesUjUf1rjf-29" value="Location of customers" style="text;html=1;align=center;verticalAlign=middle;whiteSpace=wrap;rounded=0;" parent="1" vertex="1">
          <mxGeometry x="646" y="210" width="190" height="20" as="geometry" />
        </mxCell>
        <mxCell id="lpsm7OCkFcesUjUf1rjf-30" style="edgeStyle=orthogonalEdgeStyle;rounded=0;orthogonalLoop=1;jettySize=auto;html=1;" parent="1" source="lpsm7OCkFcesUjUf1rjf-28" target="lpsm7OCkFcesUjUf1rjf-2" edge="1">
          <mxGeometry relative="1" as="geometry" />
        </mxCell>
        <mxCell id="lpsm7OCkFcesUjUf1rjf-31" value="erp_px_cat_g1v2" style="swimlane;fontStyle=0;childLayout=stackLayout;horizontal=1;startSize=30;horizontalStack=0;resizeParent=1;resizeParentMax=0;resizeLast=0;collapsible=1;marginBottom=0;whiteSpace=wrap;html=1;fillColor=#fff2cc;strokeColor=#FFD966;" parent="1" vertex="1">
          <mxGeometry x="660" y="360" width="162" height="60" as="geometry" />
        </mxCell>
        <mxCell id="lpsm7OCkFcesUjUf1rjf-32" value="id" style="text;strokeColor=none;fillColor=none;align=left;verticalAlign=middle;spacingLeft=4;spacingRight=4;overflow=hidden;points=[[0,0.5],[1,0.5]];portConstraint=eastwest;rotatable=0;whiteSpace=wrap;html=1;" parent="lpsm7OCkFcesUjUf1rjf-31" vertex="1">
          <mxGeometry y="30" width="162" height="30" as="geometry" />
        </mxCell>
        <mxCell id="lpsm7OCkFcesUjUf1rjf-33" value="Product Categories" style="text;html=1;align=center;verticalAlign=middle;whiteSpace=wrap;rounded=0;" parent="1" vertex="1">
          <mxGeometry x="646" y="340" width="190" height="20" as="geometry" />
        </mxCell>
        <mxCell id="lpsm7OCkFcesUjUf1rjf-35" style="edgeStyle=orthogonalEdgeStyle;rounded=0;orthogonalLoop=1;jettySize=auto;html=1;" parent="1" source="lpsm7OCkFcesUjUf1rjf-32" target="lpsm7OCkFcesUjUf1rjf-7" edge="1">
          <mxGeometry relative="1" as="geometry" />
        </mxCell>
        <mxCell id="lpsm7OCkFcesUjUf1rjf-36" value="" style="rounded=1;whiteSpace=wrap;html=1;dashed=1;fillStyle=hatch;strokeColor=#6c8ebf;fillColor=none;" parent="1" vertex="1">
          <mxGeometry x="10" y="40" width="490" height="420" as="geometry" />
        </mxCell>
        <mxCell id="lpsm7OCkFcesUjUf1rjf-37" value="" style="rounded=1;whiteSpace=wrap;html=1;dashed=1;fillStyle=hatch;strokeColor=#999999;fillColor=none;" parent="1" vertex="1">
          <mxGeometry x="540" y="50" width="490" height="430" as="geometry" />
        </mxCell>
        <mxCell id="lpsm7OCkFcesUjUf1rjf-38" value="&lt;b&gt;&lt;font style=&quot;font-size: 14px;&quot;&gt;CRM&lt;/font&gt;&lt;/b&gt;" style="rounded=1;whiteSpace=wrap;html=1;fillColor=#99CCFF;" parent="1" vertex="1">
          <mxGeometry x="190" y="30" width="170" height="40" as="geometry" />
        </mxCell>
        <mxCell id="lpsm7OCkFcesUjUf1rjf-39" value="&lt;b&gt;&lt;font style=&quot;font-size: 14px;&quot;&gt;ERP&lt;/font&gt;&lt;/b&gt;" style="rounded=1;whiteSpace=wrap;html=1;fillColor=#ffe6cc;strokeColor=#d79b00;" parent="1" vertex="1">
          <mxGeometry x="700" y="30" width="170" height="40" as="geometry" />
        </mxCell>
        <mxCell id="3Oikx-y7J43oOoEd7sF_-1" value="&lt;b&gt;&lt;font style=&quot;font-size: 22px;&quot;&gt;Integration Model&lt;/font&gt;&lt;/b&gt;" style="text;html=1;align=center;verticalAlign=middle;resizable=0;points=[];autosize=1;strokeColor=none;fillColor=none;" vertex="1" parent="1">
          <mxGeometry x="10" y="-55" width="210" height="40" as="geometry" />
        </mxCell>
        <mxCell id="3Oikx-y7J43oOoEd7sF_-2" value="&lt;b&gt;PRODUCT&lt;/b&gt;" style="rounded=1;whiteSpace=wrap;html=1;fillColor=#f8cecc;strokeColor=#b85450;" vertex="1" parent="1">
          <mxGeometry x="290" y="188" width="160" height="22" as="geometry" />
        </mxCell>
        <mxCell id="3Oikx-y7J43oOoEd7sF_-3" value="&lt;b&gt;PRODUCT&lt;/b&gt;" style="rounded=1;whiteSpace=wrap;html=1;fillColor=#f8cecc;strokeColor=#b85450;" vertex="1" parent="1">
          <mxGeometry x="662" y="180" width="160" height="20" as="geometry" />
        </mxCell>
        <mxCell id="3Oikx-y7J43oOoEd7sF_-4" value="&lt;b&gt;CUSTOMER&lt;/b&gt;" style="rounded=1;whiteSpace=wrap;html=1;fillColor=#d5e8d4;strokeColor=#82b366;" vertex="1" parent="1">
          <mxGeometry x="230" y="420" width="210" height="22" as="geometry" />
        </mxCell>
        <mxCell id="3Oikx-y7J43oOoEd7sF_-5" value="&lt;b&gt;CUSTOMER&lt;/b&gt;" style="rounded=1;whiteSpace=wrap;html=1;fillColor=#d5e8d4;strokeColor=#82b366;" vertex="1" parent="1">
          <mxGeometry x="660" y="290" width="160" height="22" as="geometry" />
        </mxCell>
        <mxCell id="3Oikx-y7J43oOoEd7sF_-6" value="&lt;b&gt;CUSTOMER&lt;/b&gt;" style="rounded=1;whiteSpace=wrap;html=1;fillColor=#d5e8d4;strokeColor=#82b366;" vertex="1" parent="1">
          <mxGeometry x="660" y="420" width="160" height="22" as="geometry" />
        </mxCell>
        <mxCell id="3Oikx-y7J43oOoEd7sF_-7" value="&lt;b&gt;SALES&lt;/b&gt;" style="rounded=1;whiteSpace=wrap;html=1;fillColor=#e1d5e7;strokeColor=#9673a6;" vertex="1" parent="1">
          <mxGeometry x="50" y="280" width="160" height="22" as="geometry" />
        </mxCell>
      </root>
    </mxGraphModel>
  </diagram>
</mxfile>
